<svg xmlns:inkscape="http://www.inkscape.org/namespaces/inkscape" xmlns:sodipodi="http://sodipodi.sourceforge.net/DTD/sodipodi-0.dtd" xmlns="http://www.w3.org/2000/svg" xmlns:svg="http://www.w3.org/2000/svg" version="1.1" id="svg5" inkscape:version="1.2.2 (732a01da63, 2022-12-09)" sodipodi:docname="decor.svg" viewBox="61 121.72 53.24 39.16">
  <sodipodi:namedview id="namedview7" pagecolor="#ffffff" bordercolor="#999999" borderopacity="1" inkscape:showpageshadow="0" inkscape:pageopacity="0" inkscape:pagecheckerboard="0" inkscape:deskcolor="#d1d1d1" inkscape:document-units="mm" showgrid="false" inkscape:zoom="2.9825758" inkscape:cx="253.80747" inkscape:cy="543.15469" inkscape:window-width="1920" inkscape:window-height="1017" inkscape:window-x="-8" inkscape:window-y="-8" inkscape:window-maximized="1" inkscape:current-layer="layer1"/>
  <defs id="defs2">
    <pattern id="EMFhbasepattern" patternUnits="userSpaceOnUse" width="6" height="6" x="0" y="0"/>
    <pattern id="EMFhbasepattern-9" patternUnits="userSpaceOnUse" width="6" height="6" x="0" y="0"/>
  </defs>
  <g inkscape:label="Слой 1" inkscape:groupmode="layer" id="layer1">
    <path style="fill:#c6aa86;stroke-width:0.399136;fill-opacity:1" d="m 75.360663,160.44517 c -1.317148,-0.39485 -3.382676,-1.24619 -4.590061,-1.89187 -1.207386,-0.64568 -3.373421,-2.34384 -4.813411,-3.77369 -2.002721,-1.98862 -2.82552,-3.16267 -3.50028,-4.99454 -0.485164,-1.31715 -1.055378,-3.4681 -1.267141,-4.7799 -0.248341,-1.53837 -0.246421,-4.018 0.0054,-6.98487 0.214738,-2.52989 0.592263,-5.49785 0.838944,-6.59548 0.246681,-1.09762 1.134026,-3.43256 1.971878,-5.18876 0.837852,-1.7562 1.7947,-3.52821 2.126329,-3.93781 0.480785,-0.59382 0.910704,-0.69089 2.121697,-0.47907 0.835305,0.1461 3.04543,0.40878 4.911389,0.58372 1.86596,0.17494 4.458705,0.73021 5.761656,1.23392 1.30295,0.50371 2.878057,1.47318 3.500236,2.15438 0.622179,0.6812 1.503329,2.22743 1.95811,3.43608 0.590186,1.56851 0.760225,2.69253 0.59403,3.92678 -0.128064,0.95108 -0.544803,2.25734 -0.926085,2.9028 -0.381282,0.64546 -1.3458,1.62579 -2.143373,2.17851 -0.797573,0.55272 -2.078887,1.10697 -2.847364,1.23168 -0.768477,0.12471 -1.790698,0.0162 -2.271603,-0.24121 -0.480905,-0.25737 -1.223312,-1.04022 -1.649794,-1.73967 -0.426482,-0.69944 -0.773342,-1.81055 -0.770801,-2.46912 0.0026,-0.65858 0.138376,-1.40769 0.301858,-1.66469 0.16348,-0.257 0.596456,-0.74642 1.380351,-0.73912 0.974105,0.009 1.191395,-0.0883 1.931322,1.16577 0.466514,0.79068 1.099884,1.4376 1.407487,1.4376 0.307603,0 0.918501,-0.35922 1.35755,-0.79827 0.522897,-0.5229 0.798272,-1.33045 0.798272,-2.34099 0,-0.94158 -0.313024,-1.94066 -0.803331,-2.56398 -0.441832,-0.5617 -1.723672,-1.32696 -2.848533,-1.70058 -1.407694,-0.46756 -2.718335,-0.60983 -4.204689,-0.45643 -1.23784,0.12776 -2.889676,0.6508 -3.870376,1.22553 -0.94099,0.55146 -2.359248,1.7203 -3.151685,2.59744 -0.792437,0.87713 -1.735495,2.16467 -2.095684,2.8612 -0.36019,0.69653 -0.909184,2.24272 -1.219987,3.43597 -0.06654,0.52336 -1.174538,3.2896 -0.04107,3.32801 0.288216,0 1.051563,-0.555 1.696327,-1.23335 3.327144,-2.15524 7.1839,-0.0951 6.843345,3.14545 -0.186104,1.93007 -1.276669,3.12789 -2.975251,3.7082 -1.55522,0.41011 -3.582179,0.41854 -4.743936,-1.4963 -0.410777,-0.512 -0.765863,-0.86819 -0.914534,-0.86819 -0.980533,0.28315 0.894419,5.05351 1.248436,5.82887 0.48408,1.04035 1.869136,2.86374 3.077902,4.05197 1.423369,1.39919 3.229412,2.63708 5.12565,3.51319 2.298712,1.06207 3.64052,1.40306 6.244109,1.5868 2.343758,0.1654 3.401741,0.0956 3.607868,-0.23787 0.160409,-0.25955 0.02538,-0.87828 -0.30006,-1.37497 -0.325442,-0.49669 -1.411792,-1.24125 -2.41411,-1.65459 -1.383774,-0.57065 -1.88016,-1.01452 -2.062389,-1.8442 -0.144236,-0.6567 0.01189,-1.57975 0.391286,-2.31343 0.347204,-0.67142 1.032137,-1.31184 1.522075,-1.42316 0.489937,-0.11132 1.957759,-0.24863 3.261825,-0.30513 2.371029,-0.10274 2.371029,-0.10274 3.043932,-2.69712 0.370096,-1.42691 0.879203,-3.11177 1.131349,-3.74414 0.252146,-0.63236 0.818115,-1.65486 1.25771,-2.27221 0.587409,-0.82494 1.260345,-1.19161 2.538792,-1.38332 1.039319,-0.15586 2.07757,-0.0799 2.57932,0.18858 0.461884,0.24719 1.111065,0.97403 1.442625,1.6152 0.331558,0.64116 0.602834,1.52371 0.602834,1.96121 0,0.4375 -0.148278,1.20051 -0.636172,1.54225 -0.487896,0.34173 -1.360447,0.49588 -1.632336,0.49588 -0.27189,0 -0.854325,-0.38639 -1.2943,-0.85865 -0.664291,-0.71303 -0.90384,-0.77243 -1.412524,-0.35026 -0.419179,0.34789 -0.612569,1.22454 -0.612569,2.77683 0,1.26893 -0.379061,3.3909 -0.860301,4.81593 -0.626514,1.85521 -1.342695,3.01633 -2.635436,4.27273 -1.141559,1.10947 -1.691113,1.94419 -1.539725,2.3387 0.181794,0.47375 0.577497,0.55138 1.737381,0.34087 0.826084,-0.14992 2.159212,-0.60287 2.962508,-1.00653 0.803296,-0.40367 2.563774,-2.06769 3.912173,-3.69782 1.348399,-1.63013 3.115907,-3.41581 3.927795,-3.96818 0.811888,-0.55237 2.328653,-1.39809 3.370587,-1.87939 1.04194,-0.48129 2.18459,-0.76373 2.53923,-0.62765 0.4608,0.17683 0.58201,0.55933 0.42479,1.34046 -0.12101,0.60116 -0.34094,1.58329 -0.48874,2.18249 -0.26872,1.08947 -0.26872,1.08947 0.96136,0.47582 0.67654,-0.3375 1.83299,-0.71148 2.56989,-0.83106 0.95831,-0.15551 1.53744,-0.0198 2.03387,0.47663 0.51569,0.51569 0.63238,1.06474 0.45405,2.13642 -0.23484,1.41129 -0.1883,1.4745 2.16074,2.93508 1.60359,0.99708 2.48579,1.83157 2.65686,2.51319 0.14087,0.56125 0.16858,1.108 0.0616,1.215 -0.10699,0.107 -1.07152,-0.0161 -2.1434,-0.27361 -1.10002,-0.26424 -5.07808,-0.47585 -9.1333,-0.48584 -5.140271,-0.0127 -8.206528,0.17484 -10.776664,0.65897 -1.975722,0.37216 -5.85897,0.71072 -8.823737,0.77864 -2.620366,-0.0874 -5.36194,0.10083 -7.939956,-0.42773 z" id="path189" sodipodi:nodetypes="cssssssssssssssssscscssssssssssssccccccccsssssssssssssscsssssssssssssssssssssssssscscc"/>
  </g>
</svg>