<svg xmlns:inkscape="http://www.inkscape.org/namespaces/inkscape" xmlns:sodipodi="http://sodipodi.sourceforge.net/DTD/sodipodi-0.dtd" xmlns="http://www.w3.org/2000/svg" xmlns:svg="http://www.w3.org/2000/svg" version="1.1" id="svg5" xml:space="preserve" sodipodi:docname="лого.svg" inkscape:version="1.2.2 (732a01da63, 2022-12-09)" viewBox="0.77 122.94 208.63 84.82"><sodipodi:namedview id="namedview7" pagecolor="#ffffff" bordercolor="#000000" borderopacity="0.25" inkscape:showpageshadow="2" inkscape:pageopacity="0.0" inkscape:pagecheckerboard="0" inkscape:deskcolor="#d1d1d1" inkscape:document-units="mm" showgrid="false" inkscape:zoom="0.65134574" inkscape:cx="420.66753" inkscape:cy="672.45393" inkscape:window-width="1366" inkscape:window-height="697" inkscape:window-x="-8" inkscape:window-y="-8" inkscape:window-maximized="1" inkscape:current-layer="layer1"/><defs id="defs2"/><g inkscape:label="Слой 1" inkscape:groupmode="layer" id="layer1" style="display:inline"><path style="fill:#5a8a1d;fill-opacity:1;stroke-width:0.255674" d="m 3.9613915,207.38906 c -0.5654302,-0.17718 -1.3479221,-0.53172 -1.7388707,-0.78789 -1.9984596,-1.30944 -1.91607699,-4.59772 0.1418516,-5.6619 0.8559692,-0.44265 1.2029117,-0.46447 5.5653285,-0.35007 2.2947151,0.0602 2.9062111,-0.0148 4.2107031,-0.51681 3.732334,-1.43607 6.064778,-5.59007 7.176425,-12.78093 0.460534,-2.97903 4.027315,-60.44296 3.812422,-61.42137 -0.241227,-1.0983 -1.249545,-1.72956 -2.769906,-1.73411 -1.416035,-0.004 -2.080642,-0.52674 -1.80213,-0.97739 0.193446,-0.313 52.550837,-0.28914 52.862731,0.0228 0.09252,0.0925 0.04009,0.42671 -0.116532,0.61543 -0.193025,0.23259 -0.917856,0.34312 -2.249985,0.34312 -2.297726,0 -2.765177,0.25215 -3.093605,1.66872 -0.286131,1.23416 -0.328091,79.36909 -0.04286,79.81793 0.12854,0.20227 0.662607,0.25603 2.408034,0.30395 2.480452,0.0682 3.360579,0.36202 3.115247,0.98332 -0.183717,0.46524 -1.247782,0.31654 -8.831539,0.2596 -7.51502,-0.0564 -8.877461,0.0115 -8.997323,-0.30089 -0.250098,-0.65175 0.444114,-0.89384 2.781921,-0.97006 l 2.287757,-0.0746 v -40.3553 -40.35524 l -0.603592,-0.48876 c -0.579767,-0.46944 -1.228631,-0.48875 -16.438698,-0.48875 l -15.488159,0.10409 -0.957573,0.50654 c -0.419828,0.22208 -0.670789,0.9974 -0.744331,1.47013 -0.07354,0.47274 -0.604926,8.74067 -1.180855,18.37321 -2.588928,43.30038 -2.65156,44.06349 -4.08239,49.74088 -1.788767,7.09761 -5.144476,11.79604 -9.3080683,13.03249 -1.5317391,0.45488 -4.4990867,0.46584 -5.9160062,0.0218 z m 81.7200665,-0.0481 c -5.523842,-1.48544 -8.725867,-6.49444 -8.715904,-13.63445 0.0049,-3.20909 0.472196,-5.41373 1.595726,-7.52169 2.059758,-3.86449 5.920201,-6.05207 10.680179,-6.05207 5.55195,0 9.572192,3.30591 10.353136,8.51355 0.310143,2.0682 0.807405,1.9691 -9.880408,1.9691 h -9.428648 v 3.20671 c 0,5.39056 0.952007,8.68566 3.205435,11.09477 1.661892,1.77669 3.366727,2.40499 6.126686,2.25795 2.393345,-0.12751 4.167646,-0.89453 5.451313,-2.35653 1.328267,-1.51281 1.660664,-2.3971 1.782844,-4.74295 0.123602,-2.37301 0.316477,-2.81243 1.234394,-2.81243 1.648528,0 2.147489,2.33077 1.018175,4.75611 -2.01985,4.33786 -8.107273,6.7514 -13.422928,5.32193 z m 10.66301,-18.46472 c 0.160944,-2.23335 -0.761158,-4.97644 -2.180909,-6.48778 -0.353684,-0.37651 -1.228081,-0.93621 -1.943084,-1.24382 -1.08423,-0.46641 -1.641541,-0.54039 -3.357623,-0.4457 -4.037513,0.2228 -6.609222,2.44367 -7.909919,6.83084 -0.22645,0.7638 -0.411713,1.65713 -0.411713,1.98518 v 0.59648 l 7.861979,-0.0676 7.861986,-0.0677 z m 98.994532,18.4594 c -3.04451,-0.81455 -5.72793,-3.11153 -7.17347,-6.14036 -1.19605,-2.50609 -1.59054,-4.80585 -1.44206,-8.4067 0.1865,-4.52295 1.18297,-7.01075 3.79704,-9.47976 1.52676,-1.44202 3.4635,-2.45071 5.61821,-2.92607 1.99322,-0.43974 5.3546,-0.20627 7.18924,0.49935 2.98597,1.14839 5.56451,4.42384 5.95726,7.56731 0.28721,2.29871 0.89328,2.16594 -9.88672,2.16594 h -9.42867 l 0.008,3.00417 c 0.0169,5.64722 1.00418,9.04382 3.29504,11.33469 1.84612,1.84612 3.34737,2.3916 6.12362,2.22502 4.45784,-0.26749 7.17327,-3.0694 7.18564,-7.41453 0.005,-1.68508 0.0777,-2.01104 0.50015,-2.23714 1.30751,-0.69977 2.32721,0.17532 2.29842,1.97247 -0.0383,2.39325 -1.34816,4.51177 -3.80311,6.15111 -2.9527,1.97174 -6.80021,2.6047 -10.23952,1.6845 z m 10.73833,-18.73876 c 0,-2.42782 -0.84888,-4.73619 -2.25747,-6.13875 -1.36319,-1.35738 -2.57521,-1.81476 -4.80324,-1.81266 -1.96067,0.002 -3.10959,0.33803 -4.60614,1.34776 -2.04314,1.3785 -3.60602,4.08154 -4.0824,7.06059 l -0.16792,1.05018 h 7.95858 7.95859 z m -93.76841,18.51137 c -4.01198,-1.12054 -6.76585,-3.79096 -8.00411,-7.76164 -0.7332,-2.35107 -0.92629,-6.50111 -0.4141,-8.89934 1.05513,-4.94025 4.40285,-8.54601 9.22772,-9.93892 2.17809,-0.62881 6.5918,-0.41894 8.71419,0.41434 3.45053,1.35474 5.39315,4.87311 4.08615,7.40058 -0.44045,0.85174 -1.36207,1.18967 -2.12746,0.78005 -0.71829,-0.38443 -0.88402,-1.09181 -0.54812,-2.33931 0.43726,-1.62383 0.0996,-2.95051 -1.07539,-4.22522 -1.30965,-1.42081 -2.91603,-1.97145 -5.75133,-1.97145 -1.85485,0 -2.31352,0.0987 -3.754,0.80786 -2.70946,1.33385 -4.46397,3.83891 -5.30773,7.57828 -0.55051,2.43976 -0.40383,8.72084 0.26221,11.22762 1.27645,4.80415 3.87896,6.8915 8.59085,6.89028 3.18976,-7.6e-4 5.59356,-1.35888 6.79382,-3.83827 0.48878,-1.00969 0.544,-1.43244 0.41152,-3.15039 -0.10588,-1.37309 -0.0579,-2.10494 0.15593,-2.37621 1.07483,-1.36378 2.73956,-0.27932 2.73536,1.7819 -0.006,2.64468 -2.23621,5.49635 -5.4945,7.02368 -1.61733,0.75812 -2.04832,0.8453 -4.47431,0.90497 -1.76755,0.0435 -3.14302,-0.062 -4.0267,-0.30881 z m 54.4213,-0.023 c -5.80769,-1.56178 -9.21535,-6.86173 -8.93291,-13.89343 0.0906,-2.25697 0.0409,-2.3259 0.83283,-4.00235 0.70942,-1.50163 1.26891,-2.37246 1.32295,-3.00566 0.25439,-2.98133 5.4834,-6.05111 10.45766,-6.05111 6.13118,0 10.5518,3.30252 12.06906,9.01645 0.5599,2.10861 0.55706,6.66047 -0.006,8.81038 -1.59419,6.09228 -6.08662,9.56444 -12.30899,9.51351 -1.13058,-0.009 -2.67635,-0.18376 -3.43506,-0.38778 z m 7.53186,-0.93646 c 2.36551,-1.21439 3.82207,-3.29529 4.75789,-6.79727 0.41076,-1.53721 0.52597,-2.76169 0.53331,-5.66808 0.0132,-5.18508 -0.74045,-7.93712 -2.80082,-10.22875 -1.70345,-1.89464 -3.27439,-2.6204 -5.9582,-2.75262 -1.79593,-0.0885 -2.43356,-0.008 -3.67271,0.45816 -2.78171,1.04856 -4.23008,3.25524 -3.8674,5.89222 0.0931,0.67766 0.0998,1.45143 0.0147,1.71952 -0.21848,0.68836 -1.27561,1.11982 -2.03571,0.83085 -0.61081,-0.23225 -0.61386,-0.22491 -0.50956,1.22039 0.6214,8.61078 0.93904,10.2163 2.46684,12.46839 1.80443,2.65988 4.1086,3.75407 7.60378,3.61087 1.7211,-0.0705 2.44259,-0.22732 3.46784,-0.75368 z m -45.39841,0.82973 c 0,-0.14062 0.63279,-0.25568 1.40621,-0.25568 h 1.4062 v -12.78371 -12.78372 h -1.4062 c -0.77342,0 -1.40621,-0.11506 -1.40621,-0.25568 0,-0.16042 1.61927,-0.25567 4.34647,-0.25567 2.72719,0 4.34646,0.0954 4.34646,0.25567 0,0.14062 -0.63281,0.25568 -1.40621,0.25568 h -1.40622 v 5.75267 5.75267 h 7.03106 7.03104 v -5.75267 -5.75267 h -1.26328 c -0.6948,0 -1.33439,-0.11506 -1.4213,-0.25568 -0.10301,-0.16663 1.36093,-0.25567 4.20353,-0.25567 2.73726,0 4.36156,0.0952 4.36156,0.25567 0,0.14062 -0.57526,0.25568 -1.27837,0.25568 h -1.27837 v 12.78372 12.78371 h 1.27837 c 0.70311,0 1.27837,0.11506 1.27837,0.25568 0,0.16046 -1.6243,0.25567 -4.36156,0.25567 -2.8426,0 -4.30652,-0.089 -4.20353,-0.25567 0.087,-0.14062 0.7265,-0.25568 1.4213,-0.25568 h 1.26328 v -6.77536 -6.77537 h -7.03104 -7.03106 v 6.77537 6.77536 h 1.26329 c 0.69481,0 1.33439,0.11506 1.42131,0.25568 0.10301,0.16663 -1.36095,0.25567 -4.20355,0.25567 -2.73724,0 -4.36155,-0.0952 -4.36155,-0.25567 z" id="path1611" sodipodi:nodetypes="ssssssscscssssssssscccsscsssssssscsssscsssssssssssssscccscsssssssccssssssccsscsscccscsssssssssssscssccssccsssssccccssssscscsssssssscccssssscccccccssssscccssssscccccccssss"/></g></svg>